<svg width="7" height="16" viewBox="0 0 7 16" fill="none" xmlns="http://www.w3.org/2000/svg">
<path d="M1.99 14.612C1.93 14.768 1.846 14.882 1.738 14.954C1.642 15.026 1.528 15.062 1.396 15.062C1.264 15.062 1.144 15.026 1.036 14.954C0.94 14.894 0.868 14.804 0.82 14.684C0.772 14.564 0.772 14.426 0.82 14.27L5.104 0.985999C5.164 0.829999 5.248 0.715999 5.356 0.643999C5.464 0.571999 5.578 0.536 5.698 0.536C5.83 0.536 5.944 0.571999 6.04 0.643999C6.148 0.703999 6.22 0.793999 6.256 0.913999C6.304 1.034 6.304 1.172 6.256 1.328L1.99 14.612Z" fill="#1D4ED8"/>
</svg>
