<svg width="148" height="35" viewBox="0 0 148 35" fill="none" xmlns="http://www.w3.org/2000/svg">
<path d="M46.5954 12.8138C48.16 12.8138 49.554 13.1548 50.7776 13.8368C52.0212 14.5188 52.9941 15.4816 53.6961 16.7253C54.3982 17.9689 54.7492 19.4031 54.7492 21.0278C54.7492 22.6525 54.3982 24.0967 53.6961 25.3604C52.9941 26.6041 52.0212 27.5669 50.7776 28.2488C49.554 28.9308 48.16 29.2718 46.5954 29.2718C45.4922 29.2718 44.4792 29.0813 43.5566 28.7002C42.6539 28.3191 41.8917 27.7474 41.2699 26.9852V29.0612H37.6895V6.73613H41.4504V14.9501C42.0923 14.248 42.8445 13.7165 43.707 13.3554C44.5896 12.9944 45.5524 12.8138 46.5954 12.8138ZM46.1742 26.0524C47.5582 26.0524 48.6915 25.5911 49.5741 24.6684C50.4767 23.7457 50.9281 22.5322 50.9281 21.0278C50.9281 19.5234 50.4767 18.3099 49.5741 17.3872C48.6915 16.4645 47.5582 16.0031 46.1742 16.0031C45.2716 16.0031 44.4592 16.2138 43.7371 16.635C43.015 17.0362 42.4433 17.6179 42.0221 18.3801C41.6009 19.1423 41.3902 20.0249 41.3902 21.0278C41.3902 22.0307 41.6009 22.9133 42.0221 23.6755C42.4433 24.4377 43.015 25.0295 43.7371 25.4507C44.4592 25.8519 45.2716 26.0524 46.1742 26.0524Z" fill="#1F2937"/>
<path d="M58.316 12.9944H62.077V29.0612H58.316V12.9944ZM60.2115 10.3467C59.5295 10.3467 58.9579 10.136 58.4965 9.71481C58.0352 9.27353 57.8045 8.73195 57.8045 8.09007C57.8045 7.4482 58.0352 6.91665 58.4965 6.49542C58.9579 6.05414 59.5295 5.8335 60.2115 5.8335C60.8935 5.8335 61.4652 6.04411 61.9265 6.46534C62.3879 6.86651 62.6185 7.378 62.6185 7.99981C62.6185 8.66174 62.3879 9.22338 61.9265 9.68472C61.4852 10.126 60.9136 10.3467 60.2115 10.3467Z" fill="#1F2937"/>
<path d="M79.5598 26.0524V29.0612H65.6894V26.6843L74.5051 16.0031H65.8699V12.9944H79.3191V15.3713L70.4733 26.0524H79.5598Z" fill="#1F2937"/>
<path d="M92.7436 28.1887C92.3024 28.5497 91.7608 28.8205 91.1189 29.001C90.4971 29.1816 89.8352 29.2718 89.1331 29.2718C87.368 29.2718 86.004 28.8105 85.0412 27.8878C84.0784 26.9651 83.597 25.6212 83.597 23.856V16.1235H80.9493V13.1147H83.597V9.44402H87.3579V13.1147H91.6605V16.1235H87.3579V23.7658C87.3579 24.5481 87.5485 25.1498 87.9296 25.571C88.3107 25.9722 88.8623 26.1728 89.5844 26.1728C90.4269 26.1728 91.1289 25.9522 91.6906 25.5109L92.7436 28.1887Z" fill="#1F2937"/>
<path d="M110.413 21.1181C110.413 21.3788 110.393 21.7499 110.352 22.2313H97.7457C97.9664 23.4148 98.538 24.3575 99.4607 25.0596C100.403 25.7415 101.567 26.0825 102.951 26.0825C104.716 26.0825 106.17 25.5008 107.314 24.3374L109.329 26.6542C108.607 27.5167 107.695 28.1686 106.592 28.6099C105.488 29.0512 104.245 29.2718 102.861 29.2718C101.095 29.2718 99.541 28.9208 98.197 28.2188C96.8531 27.5167 95.8101 26.5439 95.0679 25.3003C94.3458 24.0366 93.9848 22.6124 93.9848 21.0278C93.9848 19.4632 94.3358 18.0591 95.0378 16.8155C95.7599 15.5518 96.7528 14.569 98.0165 13.8669C99.2802 13.1649 100.704 12.8138 102.289 12.8138C103.854 12.8138 105.248 13.1649 106.471 13.8669C107.715 14.5489 108.678 15.5217 109.36 16.7854C110.062 18.0291 110.413 19.4733 110.413 21.1181ZM102.289 15.8226C101.085 15.8226 100.062 16.1837 99.22 16.9058C98.3976 17.6078 97.8962 18.5506 97.7156 19.734H106.832C106.672 18.5706 106.18 17.6279 105.358 16.9058C104.536 16.1837 103.513 15.8226 102.289 15.8226Z" fill="#1F2937"/>
<path d="M121.397 29.2718C119.732 29.2718 118.238 28.9208 116.914 28.2188C115.59 27.5167 114.557 26.5439 113.815 25.3003C113.073 24.0366 112.701 22.6124 112.701 21.0278C112.701 19.4432 113.073 18.0291 113.815 16.7854C114.557 15.5418 115.58 14.569 116.884 13.8669C118.207 13.1649 119.712 12.8138 121.397 12.8138C122.981 12.8138 124.365 13.1348 125.549 13.7767C126.752 14.4185 127.655 15.3412 128.257 16.5447L125.368 18.2296C124.907 17.4875 124.325 16.9359 123.623 16.5748C122.941 16.1937 122.189 16.0031 121.367 16.0031C119.963 16.0031 118.799 16.4645 117.877 17.3872C116.954 18.2898 116.493 19.5034 116.493 21.0278C116.493 22.5522 116.944 23.7758 117.846 24.6985C118.769 25.6011 119.943 26.0524 121.367 26.0524C122.189 26.0524 122.941 25.8719 123.623 25.5109C124.325 25.1298 124.907 24.5681 125.368 23.826L128.257 25.5109C127.635 26.7144 126.722 27.6471 125.519 28.309C124.335 28.9509 122.961 29.2718 121.397 29.2718Z" fill="#1F2937"/>
<path d="M140.478 12.8138C142.503 12.8138 144.128 13.4056 145.352 14.589C146.575 15.7725 147.187 17.5276 147.187 19.8544V29.0612H143.426V20.3358C143.426 18.9317 143.095 17.8786 142.433 17.1766C141.771 16.4545 140.829 16.0934 139.605 16.0934C138.221 16.0934 137.128 16.5146 136.325 17.3571C135.523 18.1795 135.122 19.373 135.122 20.9375V29.0612H131.361V6.73613H135.122V14.8598C135.744 14.1979 136.506 13.6964 137.409 13.3554C138.331 12.9944 139.354 12.8138 140.478 12.8138Z" fill="#1F2937"/>
<path d="M18.9788 9.85938V23.046C18.9788 27.6749 15.6661 31.5249 11.2812 32.3654C13.4084 34.0143 16.0777 35.0002 18.9788 35.0002C25.9221 35.0002 31.5492 29.3731 31.5492 22.4298C31.5492 15.4865 25.9221 9.85938 18.9788 9.85938Z" fill="#E31749"/>
<path d="M6.40845 22.4296C6.40845 15.4863 12.0356 9.85916 18.9789 9.85916V9.48944C18.9789 4.2493 14.7296 0 9.48944 0C4.2493 0 0 4.2493 0 9.48944V23.0458C0 28.2859 4.2493 32.5352 9.48944 32.5352C10.1032 32.5352 10.6996 32.4761 11.2813 32.3651C8.31866 30.0655 6.40845 26.4718 6.40845 22.4296Z" fill="#2D61F3"/>
<path d="M18.9786 23.046V9.85938C12.0353 9.85938 6.4082 15.4865 6.4082 22.4298C6.4082 26.4721 8.31841 30.0657 11.2811 32.3654C15.666 31.5249 18.9786 27.6749 18.9786 23.046Z" fill="#F1AA15"/>
</svg>
